<svg xmlns="http://www.w3.org/2000/svg" xmlns:xlink="http://www.w3.org/1999/xlink"><symbol id="icon-apple" viewBox="0 0 31 35">
<path d="M19.8981 6.64641C20.832 5.76332 21.5212 4.79608 21.9659 3.74432C22.3957 2.69255 22.6107 1.73932 22.6107 0.883535C22.6107 0.827841 22.6069 0.756934 22.5995 0.67317C22.5917 0.589405 22.5884 0.519708 22.5884 0.462804C22.5736 0.420731 22.5551 0.343586 22.5329 0.230988C22.5107 0.119218 22.4922 0.0420731 22.4773 0C19.8685 0.574957 18.016 1.61272 16.9192 3.11322C15.8075 4.62741 15.2293 6.42942 15.1849 8.51888C16.1776 8.43435 16.9483 8.31596 17.4972 8.16167C18.2977 7.90854 19.0977 7.40404 19.8981 6.64641Z" fill="white"/>
<path d="M27.4573 22.9058C26.4345 21.5183 25.9231 19.9547 25.9231 18.215C25.9231 16.6307 26.4045 15.1797 27.3683 13.8611C27.8871 13.1463 28.732 12.3189 29.903 11.3789C29.1322 10.4818 28.3614 9.781 27.5907 9.27536C26.1973 8.36497 24.6187 7.90808 22.8552 7.90808C21.8028 7.90808 20.5207 8.14728 19.0088 8.62371C17.5561 9.1009 16.4963 9.3385 15.8297 9.3385C15.3258 9.3385 14.303 9.12814 12.7614 8.70747C11.2051 8.28674 9.89372 8.07637 8.82642 8.07637C6.27694 8.07637 4.17216 9.08607 2.51242 11.1058C0.837472 13.1533 0 15.7752 0 18.9722C0 22.3656 1.08943 25.8921 3.26841 29.5526C5.4766 33.1844 7.70733 35 9.96039 35C10.7163 35 11.6942 34.7616 12.8948 34.2852C14.0955 33.8224 15.1474 33.5911 16.0516 33.5911C17.0151 33.5911 18.1338 33.8155 19.4089 34.2638C20.7574 34.7125 21.795 34.9365 22.5213 34.9365C24.4181 34.9365 26.3229 33.5626 28.235 30.8144C29.4801 29.0618 30.3917 27.3085 30.9698 25.5559C29.6507 25.1777 28.48 24.2942 27.4573 22.9058Z" fill="white"/>
</symbol><symbol id="icon-g-play" viewBox="0 0 29 33">
<path d="M27.1021 13.6927L21.646 10.5417L14.1708 16.1269L21.6459 21.7122L27.1205 18.5504C27.9741 18.0318 28.4835 17.1256 28.4835 16.1271C28.4835 15.1286 27.9741 14.2224 27.1021 13.6927Z" fill="#FF9100"/>
<path d="M16.0641 16.127C16.0559 16.1376 9.45483 24.6247 9.44947 24.6316L0.850452 31.4037C0.321219 30.8745 0 30.1564 0 29.3625V2.84467C0 2.05098 0.321219 1.33276 0.850452 0.80365L9.44947 7.62251C9.45483 7.62938 16.0559 16.1165 16.0641 16.127Z" fill="#25D9F8"/>
<path d="M16.0607 16.1271L14.1708 18.565V13.689L16.0607 16.1271Z" fill="#00C0F1"/>
<path d="M21.6578 10.5329L16.0636 16.1271L0.849976 0.803743C1.0389 0.63359 1.22795 0.501297 1.43584 0.369004C2.34293 -0.141204 3.42023 -0.122368 4.30854 0.425764L14.1737 6.22402L21.6578 10.5329Z" fill="#7FE881"/>
<path d="M21.6549 10.5329L16.0607 16.127L14.1708 14.2372V6.224L21.6549 10.5329Z" fill="#5BC980"/>
<path d="M21.6578 21.7211L14.1737 26.0301L4.28965 31.8006C3.83607 32.0651 3.3447 32.2163 2.83436 32.2163C2.36189 32.2163 1.88942 32.084 1.43584 31.8383C1.22795 31.706 1.0389 31.5738 0.849976 31.4037L16.0636 16.1271L21.6578 21.7211Z" fill="#FF637B"/>
<path d="M21.6549 21.7211L14.1708 26.0301V18.017L16.0607 16.1271L21.6549 21.7211Z" fill="#E63950"/>
</symbol></svg>