<svg xmlns="http://www.w3.org/2000/svg"><symbol id="icon-apple" viewBox="0 0 31 35"><path d="M19.898 6.646c.934-.883 1.623-1.85 2.068-2.902.43-1.051.645-2.005.645-2.86 0-.056-.004-.127-.012-.21a2.3 2.3 0 01-.01-.211 1.955 1.955 0 01-.056-.232A1.946 1.946 0 0022.477 0c-2.608.575-4.461 1.613-5.558 3.113-1.112 1.514-1.69 3.316-1.734 5.406.993-.085 1.763-.203 2.312-.357.8-.253 1.6-.758 2.401-1.516z" fill="#fff"/><path d="M27.457 22.906c-1.023-1.388-1.534-2.951-1.534-4.691 0-1.584.482-3.035 1.445-4.354.52-.715 1.364-1.542 2.535-2.482-.77-.897-1.542-1.598-2.312-2.104-1.394-.91-2.972-1.367-4.736-1.367-1.052 0-2.334.24-3.846.716-1.453.477-2.513.714-3.18.714-.503 0-1.526-.21-3.068-.63-1.556-.421-2.867-.632-3.935-.632-2.55 0-4.654 1.01-6.314 3.03C.837 13.153 0 15.776 0 18.972c0 3.394 1.09 6.92 3.268 10.58C5.477 33.185 7.708 35 9.96 35c.756 0 1.734-.238 2.935-.715 1.2-.463 2.252-.694 3.157-.694.963 0 2.082.224 3.357.673 1.348.448 2.386.672 3.112.672 1.897 0 3.802-1.373 5.714-4.122 1.245-1.752 2.157-3.506 2.735-5.258-1.32-.378-2.49-1.262-3.513-2.65z" fill="#fff"/></symbol><symbol id="icon-g-play" viewBox="0 0 29 33"><path d="M27.102 13.693l-5.456-3.151-7.475 5.585 7.475 5.585 5.474-3.162a2.815 2.815 0 001.363-2.423c0-.998-.509-1.905-1.38-2.434z" fill="#FF9100"/><path d="M16.064 16.127L9.45 24.632l-8.6 6.772A2.871 2.871 0 010 29.363V2.845C0 2.05.321 1.333.85.804l8.6 6.819 6.614 8.504z" fill="#25D9F8"/><path d="M16.06 16.127l-1.89 2.438v-4.876l1.89 2.438z" fill="#00C0F1"/><path d="M21.658 10.533l-5.594 5.594L.85.804c.189-.17.378-.303.586-.435a2.798 2.798 0 012.873.057l9.865 5.798 7.484 4.309z" fill="#7FE881"/><path d="M21.655 10.533l-5.594 5.594-1.89-1.89V6.224l7.484 4.309z" fill="#5BC980"/><path d="M21.658 21.721l-7.484 4.31L4.29 31.8a2.88 2.88 0 01-1.456.415c-.472 0-.945-.132-1.398-.378a4.265 4.265 0 01-.586-.434l15.214-15.277 5.594 5.594z" fill="#FF637B"/><path d="M21.655 21.721l-7.484 4.31v-8.014l1.89-1.89 5.594 5.594z" fill="#E63950"/></symbol></svg>